<svg height="512" viewBox="0 0 256 256" width="512" xmlns="http://www.w3.org/2000/svg"><g fill="#846f75"><path d="m216.911 52.431h-177.822a7.6 7.6 0 0 0 -7.589 7.589v141.224a7.6 7.6 0 0 0 7.589 7.589h177.822a7.6 7.6 0 0 0 7.589-7.589v-141.224a7.6 7.6 0 0 0 -7.589-7.589zm-177.822 5h177.822a2.591 2.591 0 0 1 2.589 2.589v23.147h-183v-23.147a2.592 2.592 0 0 1 2.589-2.589zm177.822 146.4h-177.822a2.592 2.592 0 0 1 -2.589-2.589v-113.075h183v113.077a2.591 2.591 0 0 1 -2.589 2.589z"/><path d="m166.333 73.5h5.334a2.5 2.5 0 0 0 0-5h-5.334a2.5 2.5 0 0 0 0 5z"/><path d="m184.333 73.5h5.334a2.5 2.5 0 1 0 0-5h-5.334a2.5 2.5 0 0 0 0 5z"/><path d="m202.333 73.5h5.334a2.5 2.5 0 1 0 0-5h-5.334a2.5 2.5 0 1 0 0 5z"/><path d="m48.333 73.5h5.334a2.5 2.5 0 0 0 0-5h-5.334a2.5 2.5 0 0 0 0 5z"/></g><path d="m184.333 115.75h-136a2.5 2.5 0 0 1 -2.5-2.5v-14a2.5 2.5 0 0 1 2.5-2.5h136a2.5 2.5 0 0 1 2.5 2.5v14a2.5 2.5 0 0 1 -2.5 2.5zm-133.5-5h131v-9h-131z" fill="#ebe7f2"/><path d="m207.667 101.75h-13.167a2.5 2.5 0 0 1 0-5h13.167a2.5 2.5 0 1 1 0 5z" fill="#ebe7f2"/><path d="m207.667 108.75h-13.167a2.5 2.5 0 0 1 0-5h13.167a2.5 2.5 0 1 1 0 5z" fill="#ebe7f2"/><path d="m207.667 115.75h-13.167a2.5 2.5 0 0 1 0-5h13.167a2.5 2.5 0 1 1 0 5z" fill="#ebe7f2"/><path d="m207.667 159.167h-159.334a2.5 2.5 0 0 1 -2.5-2.5v-32.667a2.5 2.5 0 0 1 2.5-2.5h159.334a2.5 2.5 0 0 1 2.5 2.5v32.667a2.5 2.5 0 0 1 -2.5 2.5zm-156.834-5h154.334v-27.667h-154.334z" fill="#ed9abc"/><path d="m93.857 193.618h-45.524a2.5 2.5 0 0 1 -2.5-2.5v-23.451a2.5 2.5 0 0 1 2.5-2.5h45.524a2.5 2.5 0 0 1 2.5 2.5v23.451a2.5 2.5 0 0 1 -2.5 2.5zm-43.024-5h40.524v-18.451h-40.524z" fill="#ed9abc"/><path d="m150.762 193.618h-45.524a2.5 2.5 0 0 1 -2.5-2.5v-23.451a2.5 2.5 0 0 1 2.5-2.5h45.524a2.5 2.5 0 0 1 2.5 2.5v23.451a2.5 2.5 0 0 1 -2.5 2.5zm-43.024-5h40.524v-18.451h-40.524z" fill="#ed9abc"/><path d="m207.667 193.618h-45.524a2.5 2.5 0 0 1 -2.5-2.5v-23.451a2.5 2.5 0 0 1 2.5-2.5h45.524a2.5 2.5 0 0 1 2.5 2.5v23.451a2.5 2.5 0 0 1 -2.5 2.5zm-43.024-5h40.524v-18.451h-40.524z" fill="#ed9abc"/></svg>