<?xml version="1.0"?>
<svg xmlns="http://www.w3.org/2000/svg" height="512px" viewBox="0 0 256 256" width="512px" class=""><g><path d="m122.667 109h-43.667a2.5 2.5 0 0 1 0-5h43.667a2.5 2.5 0 0 1 0 5z" fill="#f9b087" class="active-path" style="fill:#ED9ABC"/><path d="m145.667 133.334h-37.167a2.5 2.5 0 0 1 0-5h37.167a2.5 2.5 0 0 1 0 5z" fill="#ebe7f2" class=""/><path d="m98.5 133.334h-50.167a2.5 2.5 0 0 1 0-5h50.167a2.5 2.5 0 0 1 0 5z" fill="#f9b087" class="active-path" style="fill:#ED9ABC"/><path d="m170.708 157.667h-36.958a2.5 2.5 0 0 1 0-5h36.958a2.5 2.5 0 0 1 0 5z" fill="#f9b087" class="active-path" style="fill:#ED9ABC"/><path d="m123.75 157.667h-44.75a2.5 2.5 0 0 1 0-5h44.75a2.5 2.5 0 1 1 0 5z" fill="#ebe7f2" class=""/><path d="m189.667 182h-37.417a2.5 2.5 0 0 1 0-5h37.417a2.5 2.5 0 1 1 0 5z" fill="#ebe7f2" class=""/><path d="m87.5 182h-39.167a2.5 2.5 0 0 1 0-5h39.167a2.5 2.5 0 0 1 0 5z" fill="#f9b087" class="active-path" style="fill:#ED9ABC"/><g fill="#846f75"><path d="m217 52.431h-178a7.508 7.508 0 0 0 -7.5 7.5v136.138a7.508 7.508 0 0 0 7.5 7.5h178a7.508 7.508 0 0 0 7.5-7.5v-136.138a7.508 7.508 0 0 0 -7.5-7.5zm-178 5h178a2.5 2.5 0 0 1 2.5 2.5v23.236h-183v-23.236a2.5 2.5 0 0 1 2.5-2.5zm178 141.138h-178a2.5 2.5 0 0 1 -2.5-2.5v-107.902h183v107.9a2.5 2.5 0 0 1 -2.5 2.502z" class="" style="fill:#846F75"/><path d="m166.333 73.5h5.334a2.5 2.5 0 0 0 0-5h-5.334a2.5 2.5 0 0 0 0 5z" class="" style="fill:#846F75"/><path d="m184.333 73.5h5.334a2.5 2.5 0 1 0 0-5h-5.334a2.5 2.5 0 0 0 0 5z" class="" style="fill:#846F75"/><path d="m202.333 73.5h5.334a2.5 2.5 0 1 0 0-5h-5.334a2.5 2.5 0 1 0 0 5z" class="" style="fill:#846F75"/><path d="m48.333 73.5h5.334a2.5 2.5 0 0 0 0-5h-5.334a2.5 2.5 0 0 0 0 5z" class="" style="fill:#846F75"/><path d="m69 104h-20.667a2.5 2.5 0 0 0 0 5h20.667a2.5 2.5 0 0 0 0-5z" class="" style="fill:#846F75"/><path d="m69 152.667h-20.667a2.5 2.5 0 0 0 0 5h20.667a2.5 2.5 0 0 0 0-5z" class="" style="fill:#846F75"/><path d="m142.25 177h-44.75a2.5 2.5 0 0 0 0 5h44.75a2.5 2.5 0 0 0 0-5z" class="" style="fill:#846F75"/><path d="m180 128.334h-24.333a2.5 2.5 0 1 0 0 5h24.333a2.5 2.5 0 0 0 0-5z" class="" style="fill:#846F75"/></g></g> </svg>
