<?xml version="1.0"?>
<svg xmlns="http://www.w3.org/2000/svg" height="512px" viewBox="0 0 256 256" width="512px" class="">
    <g>
        <path d="m208.657 192.271h-70.889a2.5 2.5 0 0 1 0-5h68.389v-28.6h-156.314v28.6h55.557a2.5 2.5 0 0 1 0 5h-58.057a2.5 2.5 0 0 1 -2.5-2.5v-33.6a2.5 2.5 0 0 1 2.5-2.5h161.314a2.5 2.5 0 0 1 2.5 2.5v33.6a2.5 2.5 0 0 1 -2.5 2.5z" fill="#ebe7f2"/>
        <path d="m145.236 226a4.821 4.821 0 0 1 -3.432-1.422l-17.906-17.9-6.374 9.5a4.853 4.853 0 0 1 -8.751-1.573l-9.8-40.942a4.853 4.853 0 0 1 5.85-5.849l40.943 9.8a4.853 4.853 0 0 1 1.574 8.75l-9.5 6.375 17.905 17.906a4.86 4.86 0 0 1 0 6.863l-7.074 7.074a4.822 4.822 0 0 1 -3.435 1.418zm-21.719-25.745a2.5 2.5 0 0 1 1.767.733l19.952 19.951 6.867-6.866-19.953-19.951a2.5 2.5 0 0 1 .375-3.844l11.75-7.882-40.384-9.668 9.668 40.384 7.881-11.749a2.5 2.5 0 0 1 1.833-1.1c.081-.004.164-.008.244-.008z" fill="#a58bc9" class="active-path" style="fill:#ED9ABC"/>
        <path d="m220 143.028h-183.995a2.5 2.5 0 0 0 -2.5 2.5v55.1a2.5 2.5 0 0 0 2.5 2.5h53.585a2.5 2.5 0 0 0 0-5h-51.085v-50.1h178.995v50.1h-56.62a2.5 2.5 0 0 0 0 5h59.12a2.5 2.5 0 0 0 2.5-2.5v-55.1a2.5 2.5 0 0 0 -2.5-2.5z" fill="#846f75" class=""/>
        <path d="m128 122.994a46.5 46.5 0 1 0 -46.5-46.494 46.549 46.549 0 0 0 46.5 46.494zm0-87.994a41.5 41.5 0 1 1 -41.5 41.5 41.544 41.544 0 0 1 41.5-41.5z" fill="#846f75" class=""/>
        <path d="m123.846 90.464h-.125a2.5 2.5 0 0 1 -1.81-.914l-11.584-14.161a2.5 2.5 0 1 1 3.869-3.166l9.835 12.02 19.285-19.284a2.5 2.5 0 0 1 3.536 3.535l-21.239 21.238a2.5 2.5 0 0 1 -1.767.732z" fill="#a58bc9" class="active-path" style="fill:#ED9ABC"/>
    </g>
</svg>
