<?xml version="1.0"?>
<svg xmlns="http://www.w3.org/2000/svg" height="512px" viewBox="0 0 256 256" width="512px" class="hovered-paths"><g transform="matrix(-1 1.22465e-16 -1.22465e-16 -1 256 256)"><path d="m227.748 225.075h-199.496a2.5 2.5 0 0 1 0-5h199.5a2.5 2.5 0 0 1 0 5z" fill="#f9b087" class="hovered-path active-path" style="fill:#ED9ABC"/><path d="m134.514 80.151a2.5 2.5 0 0 1 -2.5-2.5v-44.226a2.5 2.5 0 0 1 5 0v44.226a2.5 2.5 0 0 1 -2.5 2.5z" fill="#ebe7f2" class=""/><path d="m122.088 80.151a2.5 2.5 0 0 1 -2.5-2.5v-44.226a2.5 2.5 0 0 1 5 0v44.226a2.5 2.5 0 0 1 -2.5 2.5z" fill="#ebe7f2" class=""/><path d="m179.479 30.925h-102.958a18.672 18.672 0 0 0 -18.65 18.651v102.957a18.672 18.672 0 0 0 18.65 18.651h48.979v29.831l-8.428-8.428a2.5 2.5 0 0 0 -3.535 3.535l12.695 12.7a2.5 2.5 0 0 0 3.536 0l12.695-12.7a2.5 2.5 0 0 0 -3.535-3.535l-8.428 8.428v-29.831h48.979a18.672 18.672 0 0 0 18.65-18.651v-102.957a18.672 18.672 0 0 0 -18.65-18.651zm-44.12 64.2h-14.718l-8.359-14.975h31.436zm-2.79 5-4.569 8.187-4.569-8.186zm12.907-64.2v39.226h-34.952v-39.226zm47.653 116.608a13.666 13.666 0 0 1 -13.65 13.651h-102.958a13.666 13.666 0 0 1 -13.65-13.651v-102.957a13.666 13.666 0 0 1 13.65-13.651h29v41.726a2.494 2.494 0 0 0 .317 1.218l19.976 35.79a2.5 2.5 0 0 0 4.366 0l19.976-35.79a2.494 2.494 0 0 0 .317-1.218v-41.726h29a13.666 13.666 0 0 1 13.65 13.651z" fill="#846f75" class=""/><path d="m171.136 148.489h-86.272a8.364 8.364 0 0 1 0-16.728h86.272a8.364 8.364 0 0 1 0 16.728zm-86.272-11.728a3.364 3.364 0 0 0 0 6.728h86.272a3.364 3.364 0 0 0 0-6.728z" fill="#f9b087" class="hovered-path active-path" style="fill:#ED9ABC"/></g> </svg>
