<svg height="512" viewBox="0 0 256 256" width="512" xmlns="http://www.w3.org/2000/svg"><g fill="#ed9abc"><path d="m78.013 60.437h-28a2.5 2.5 0 0 1 0-5h28a2.5 2.5 0 0 1 0 5z"/><path d="m205.985 60.437h-16.116a2.5 2.5 0 0 1 0-5h16.116a2.5 2.5 0 0 1 0 5z"/><path d="m69.94 118.309a2.493 2.493 0 0 1 -1.767-.733l-5.712-5.711a2.5 2.5 0 1 1 3.539-3.535l3.943 3.943 8.066-8.065a2.5 2.5 0 0 1 3.536 3.535l-9.834 9.833a2.494 2.494 0 0 1 -1.771.733z"/><path d="m190.309 105.645h-41.817a2.5 2.5 0 0 1 0-5h41.817a2.5 2.5 0 0 1 0 5z"/><path d="m136.177 105.645h-23.655a2.5 2.5 0 0 1 0-5h23.655a2.5 2.5 0 0 1 0 5z"/><path d="m196.927 118.932h-20.113a2.5 2.5 0 0 1 0-5h20.113a2.5 2.5 0 0 1 0 5z"/><path d="m164.5 118.932h-51.978a2.5 2.5 0 0 1 0-5h51.978a2.5 2.5 0 0 1 0 5z"/></g><path d="m220.053 44.1h-184.106a2.5 2.5 0 0 0 -2.5 2.5v162.8a2.5 2.5 0 0 0 2.5 2.5h184.106a2.5 2.5 0 0 0 2.5-2.5v-162.8a2.5 2.5 0 0 0 -2.5-2.5zm-2.5 5v16.472h-179.106v-16.472zm-179.106 157.8v-136.328h179.106v136.328z" fill="#846f75"/><path d="m89.005 90.24h-34.095a2.5 2.5 0 0 0 -2.5 2.5v34.1a2.5 2.5 0 0 0 2.5 2.5h34.1a2.5 2.5 0 0 0 2.5-2.5v-34.1a2.5 2.5 0 0 0 -2.505-2.5zm-2.5 34.1h-29.095v-29.1h29.1z" fill="#846f75"/><path d="m89.005 147.079h-34.095a2.5 2.5 0 0 0 -2.5 2.5v34.1a2.5 2.5 0 0 0 2.5 2.5h34.1a2.5 2.5 0 0 0 2.5-2.5v-34.1a2.5 2.5 0 0 0 -2.505-2.5zm-2.5 34.1h-29.095v-29.1h29.1z" fill="#846f75"/><path d="m190.309 162.483h-41.817a2.5 2.5 0 0 1 0-5h41.817a2.5 2.5 0 1 1 0 5z" fill="#ed9abc"/><path d="m136.177 162.483h-23.655a2.5 2.5 0 1 1 0-5h23.655a2.5 2.5 0 0 1 0 5z" fill="#ed9abc"/><path d="m196.927 175.771h-20.113a2.5 2.5 0 0 1 0-5h20.113a2.5 2.5 0 0 1 0 5z" fill="#ed9abc"/><path d="m164.5 175.771h-51.978a2.5 2.5 0 0 1 0-5h51.978a2.5 2.5 0 0 1 0 5z" fill="#ed9abc"/><path d="m71.958 170.931a2.5 2.5 0 0 1 -2.5-2.5v-10.493a2.5 2.5 0 0 1 5 0v10.493a2.5 2.5 0 0 1 -2.5 2.5z" fill="#ed9abc"/><path d="m71.958 178.734a2.5 2.5 0 0 1 -2.5-2.5v-.623a2.5 2.5 0 0 1 5 0v.623a2.5 2.5 0 0 1 -2.5 2.5z" fill="#ed9abc"/></svg>