<?xml version="1.0"?>
<svg xmlns="http://www.w3.org/2000/svg" height="512px" viewBox="0 0 256 256" width="512px" class=""><g><path d="m103 51.339h-12.667a2.5 2.5 0 0 1 0-5h12.667a2.5 2.5 0 0 1 0 5z" fill="#ebe7f2" class=""/><path d="m128 51.339h-12.667a2.5 2.5 0 0 1 0-5h12.667a2.5 2.5 0 0 1 0 5z" fill="#ebe7f2" class=""/><path d="m153 51.339h-12.667a2.5 2.5 0 0 1 0-5h12.667a2.5 2.5 0 0 1 0 5z" fill="#ebe7f2" class=""/><path d="m61.333 95.833h-15a2.5 2.5 0 0 1 0-5h15a2.5 2.5 0 0 1 0 5z" fill="#65c1d6" class="active-path" style="fill:#ED9ABC"/><path d="m61.333 122.5h-15a2.5 2.5 0 0 1 0-5h15a2.5 2.5 0 0 1 0 5z" fill="#65c1d6" class="active-path" style="fill:#ED9ABC"/><path d="m61.333 149.167h-15a2.5 2.5 0 0 1 0-5h15a2.5 2.5 0 0 1 0 5z" fill="#65c1d6" class="active-path" style="fill:#ED9ABC"/><path d="m53.833 66a10 10 0 1 1 10-10 10.011 10.011 0 0 1 -10 10zm0-15a5 5 0 1 0 5 5 5.006 5.006 0 0 0 -5-5z" fill="#65c1d6" class="active-path" style="fill:#ED9ABC"/><g fill="#846f75"><path d="m217 31.966h-178a7.508 7.508 0 0 0 -7.5 7.5v136.134a7.509 7.509 0 0 0 7.5 7.5h68.652a20.1 20.1 0 0 1 -5.726 19.816l-3.411 3.184h-7.515a9 9 0 0 0 0 18h74a9 9 0 0 0 0-18h-7.515l-3.411-3.184a20.1 20.1 0 0 1 -5.726-19.816h68.652a7.509 7.509 0 0 0 7.5-7.5v-136.134a7.508 7.508 0 0 0 -7.5-7.5zm2.5 7.5v20.034h-139.5v-22.534h137a2.5 2.5 0 0 1 2.5 2.5zm-183 136.134v-136.134a2.5 2.5 0 0 1 2.5-2.5h36v140.74a2.5 2.5 0 0 0 .04.4h-36.04a2.5 2.5 0 0 1 -2.5-2.506zm132.5 39.5a4 4 0 0 1 -4 4h-74a4 4 0 0 1 0-8h74a4 4 0 0 1 4 4zm-18.829-9h-44.342a25.1 25.1 0 0 0 6.965-23h30.412a25.1 25.1 0 0 0 6.965 23zm66.829-28h-137.04a2.5 2.5 0 0 0 .04-.4v-113.2h139.5v111.1a2.5 2.5 0 0 1 -2.5 2.5z" class="" style="fill:#846F75"/><path d="m118.333 72.833a25.377 25.377 0 0 0 -16.4 5.994 2.5 2.5 0 0 0 -.419.334c-.031.03-.052.066-.08.1a25.481 25.481 0 1 0 16.9-6.426zm20.332 23h-7.073a13.465 13.465 0 0 0 -19.385-9.515l-5.107-5.111a20.462 20.462 0 0 1 31.569 14.626zm-20.332 11a8.5 8.5 0 1 1 8.5-8.5 8.51 8.51 0 0 1 -8.5 8.5zm-20.5-8.5a20.4 20.4 0 0 1 5.448-13.87l4.948 4.947a13.469 13.469 0 0 0 7.6 22.182v7.073a20.52 20.52 0 0 1 -17.996-20.332zm23 20.332v-7.073a13.527 13.527 0 0 0 10.759-10.759h7.073a20.522 20.522 0 0 1 -17.832 17.832z" class="" style="fill:#846F75"/><path d="m159.333 85.167h12.334a2.5 2.5 0 0 0 0-5h-12.334a2.5 2.5 0 0 0 0 5z" class="" style="fill:#846F75"/><path d="m203.333 93.5h-44a2.5 2.5 0 0 0 0 5h44a2.5 2.5 0 0 0 0-5z" class="" style="fill:#846F75"/><path d="m192.833 109.333a2.5 2.5 0 0 0 -2.5-2.5h-31a2.5 2.5 0 0 0 0 5h31a2.5 2.5 0 0 0 2.5-2.5z" class="" style="fill:#846F75"/><path d="m108.975 130.994h-12.308a2.5 2.5 0 0 0 -2.5 2.5v28.506a2.5 2.5 0 0 0 2.5 2.5h12.308a2.5 2.5 0 0 0 2.5-2.5v-28.506a2.5 2.5 0 0 0 -2.5-2.5zm-2.5 28.506h-7.308v-23.506h7.308z" class="" style="fill:#846F75"/><path d="m132.564 142.5h-12.307a2.5 2.5 0 0 0 -2.5 2.5v17a2.5 2.5 0 0 0 2.5 2.5h12.307a2.5 2.5 0 0 0 2.5-2.5v-17a2.5 2.5 0 0 0 -2.5-2.5zm-2.5 17h-7.307v-12h7.307z" class="" style="fill:#846F75"/><path d="m156.154 149.167h-12.308a2.5 2.5 0 0 0 -2.5 2.5v10.333a2.5 2.5 0 0 0 2.5 2.5h12.308a2.5 2.5 0 0 0 2.5-2.5v-10.333a2.5 2.5 0 0 0 -2.5-2.5zm-2.5 10.333h-7.308v-5.333h7.308z" class="" style="fill:#846F75"/><path d="m179.743 137.5h-12.307a2.5 2.5 0 0 0 -2.5 2.5v22a2.5 2.5 0 0 0 2.5 2.5h12.307a2.5 2.5 0 0 0 2.5-2.5v-22a2.5 2.5 0 0 0 -2.5-2.5zm-2.5 22h-7.307v-17h7.307z" class="" style="fill:#846F75"/><path d="m203.333 130.994h-12.308a2.5 2.5 0 0 0 -2.5 2.5v28.506a2.5 2.5 0 0 0 2.5 2.5h12.308a2.5 2.5 0 0 0 2.5-2.5v-28.506a2.5 2.5 0 0 0 -2.5-2.5zm-2.5 28.506h-7.308v-23.506h7.308z" class="" style="fill:#846F75"/></g></g> </svg>
